<svg width="16" height="16" viewBox="0 0 16 16" xmlns="http://www.w3.org/2000/svg">
  <path fill="currentColor" d="M5 1.5C3.6 1.5 3 2.2 3 3.4v1.8c0 .8-.4 1.2-1.2 1.2H1.5v1.2h.3c.8 0 1.2.4 1.2 1.2v1.8c0 1.2.6 1.9 2 1.9h1V12.3h-.6c-.6 0-.9-.3-.9-.9V9.7c0-.9-.4-1.4-1.1-1.7.7-.3 1.1-.8 1.1-1.7V4.6c0-.6.3-.9.9-.9H6V1.5H5z"/>
  <path fill="currentColor" d="M11 1.5c1.4 0 2 .7 2 1.9v1.8c0 .8.4 1.2 1.2 1.2h.3v1.2h-.3c-.8 0-1.2.4-1.2 1.2v1.8c0 1.2-.6 1.9-2 1.9h-1V12.3h.6c.6 0 .9-.3.9-.9V9.7c0-.9.4-1.4 1.1-1.7-.7-.3-1.1-.8-1.1-1.7V4.6c0-.6-.3-.9-.9-.9H10V1.5h1z"/>
  <circle fill="currentColor" cx="8" cy="8" r="1.1"/>
</svg>
